<svg width="48" height="48" viewBox="0 0 48 48" fill="none" xmlns="http://www.w3.org/2000/svg">
  <defs>
    <linearGradient id="t1" x1="36" y1="17" x2="24" y2="10" gradientUnits="userSpaceOnUse">
      <stop offset="0%" stop-color="#A78BFA" stop-opacity="0"/>
      <stop offset="100%" stop-color="#A78BFA" stop-opacity="1"/>
    </linearGradient>
    <linearGradient id="t2" x1="24" y1="38" x2="36" y2="31" gradientUnits="userSpaceOnUse">
      <stop offset="0%" stop-color="#7C3AED" stop-opacity="0"/>
      <stop offset="100%" stop-color="#7C3AED" stop-opacity="1"/>
    </linearGradient>
    <linearGradient id="t3" x1="12" y1="17" x2="12" y2="31" gradientUnits="userSpaceOnUse">
      <stop offset="0%" stop-color="#7C3AED" stop-opacity="0"/>
      <stop offset="100%" stop-color="#7C3AED" stop-opacity="1"/>
    </linearGradient>
  </defs>
  <rect width="48" height="48" rx="13" fill="#0B0A1A"/>
  <circle cx="24" cy="24" r="14" stroke="#6D28D9" stroke-width=".5" stroke-dasharray="2 3" opacity=".2"/>
  <!-- Trails -->
  <path d="M36,17 A14,14 0 0,0 24,10" stroke="url(#t1)" stroke-width="2.5" stroke-linecap="round" fill="none"/>
  <path d="M24,38 A14,14 0 0,0 36,31" stroke="url(#t2)" stroke-width="2.5" stroke-linecap="round" fill="none"/>
  <path d="M12,17 A14,14 0 0,0 12,31" stroke="url(#t3)" stroke-width="2.5" stroke-linecap="round" fill="none"/>
  <!-- Apex comet — #A78BFA -->
  <circle cx="24" cy="10" r="3.8" fill="#A78BFA" opacity=".2"/>
  <circle cx="24" cy="10" r="2.6" fill="#A78BFA"/>
  <circle cx="24" cy="10" r="1.2" fill="white"/>
  <!-- Bottom-right comet — #7C3AED -->
  <circle cx="36" cy="31" r="3" fill="#7C3AED" opacity=".2"/>
  <circle cx="36" cy="31" r="2.2" fill="#7C3AED"/>
  <circle cx="36" cy="31" r="1" fill="white" opacity=".8"/>
  <!-- Bottom-left comet — #7C3AED -->
  <circle cx="12" cy="31" r="3" fill="#7C3AED" opacity=".2"/>
  <circle cx="12" cy="31" r="2.2" fill="#7C3AED"/>
  <circle cx="12" cy="31" r="1" fill="white" opacity=".8"/>
</svg>
